<?xml version="1.0" encoding="utf-8"?>
<!-- Generator: Adobe Illustrator 18.0.0, SVG Export Plug-In . SVG Version: 6.00 Build 0)  -->
<!DOCTYPE svg PUBLIC "-//W3C//DTD SVG 1.1//EN" "http://www.w3.org/Graphics/SVG/1.1/DTD/svg11.dtd">
<svg version="1.1" id="Layer_1" xmlns="http://www.w3.org/2000/svg" xmlns:xlink="http://www.w3.org/1999/xlink" x="0px" y="0px"
	 viewBox="9 141 530 438" enable-background="new 9 141 530 438" xml:space="preserve">
<path id="OK" fill="#F4F3F2" stroke="#B7B7B7" stroke-width="2" d="M380.3,320.8l-16.7-1.3l-0.9,11l20.5,1.2l32.1,1.3l-2.3,24.4
	l-0.5,17.8l0.2,1.6l4.3,3.7l2.1,1.1l0.7-0.2l0.7-2.1l1.4,1.8h2.1v-1.4l2.7,1.4l-0.5,3.9l4.1,0.2l2.5,1.1l4.1,0.7l2.5,1.8l2.3-2.1
	l3.4,0.7l2.5,3.4h0.9v2.3l2.3,0.7l2.3-2.3l1.8,0.7h2.5l0.9,2.5l6.3,2.1l1.4-0.7l1.8-4.1h1.1l1.1,2.1l4.1,0.7l3.7,1.4l3,0.9l1.8-0.9
	l0.7-2.5h4.3l2.1,0.9l2.7-2.1h1.1l0.7,1.6h4.1l1.6-2.1l1.8,0.5l2.1,2.5l3.2,1.8l3.2,0.9l1.9,1.1l-0.4-37.2l-1.4-11l-0.2-8.9
	l-1.4-6.5l-0.8-7.2l-0.1-3.8l-12.1,0.3l-46.4-0.5l-45-2.1L380.3,320.8L380.3,320.8z"/>
<path id="TX" fill="#F4F3F2" stroke="#B7B7B7" stroke-width="2" d="M361.5,330.6l22.7,1.1l31.1,1.1l-2.3,23.5l-0.3,18.2l0.1,2.1
	l4.3,3.8l2,1.4l1.2-0.6l0.4-1.8l1.1,1.8l2.1,0l0-1.4l1.7,1l1.1,0.4l-0.4,4l4.1,0.1l2.9,1.2l4,0.5l2.4,2.1l2.1-2.1l3.7,0.6l2.2,3.2
	l1.1,0.3l-0.2,2l2.2,0.8l2.3-2.1l2.1,0.6l2.2,0l0.9,2.4l6.3,2.1l1.6-0.8l1.5-4.2h0.3l0.9,0.1l1.2,2.1l3.9,0.7l3.3,1.1l3.4,1.2l1.8-1
	l0.7-2.5l4.5,0l1.8,0.9l2.8-2.1l1.1,0l0.9,1.6h4.1l1.5-2l1.9,0.4l1.9,2.4l3.5,2l2.9,0.8l1.5,0.8l2.4,2l3-1.3l2.7,1.1l0.6,6.1l0,9.7
	l0.7,9.5l0.7,3.6l2.7,4.4l0.9,5l4.2,5.5l0.2,3.1l0.7,0.8l-0.7,8.4l-2.9,5l1.5,2.2l-0.6,2.3l-0.7,7.4l-1.5,3.3l0.3,3.5l-5.7,1.6
	l-9.9,4.5l-1,1.9l-2.6,1.9l-2.1,1.5l-1.3,0.8L498,498l-2.7,2.1l-5.3,3.2l-5.7,2.4l-6.3,3.4l-1.8,1.5l-5.8,3.6l-3.4,0.6l-3.9,5.5
	l-4,0.3l-1,1.9l2.3,1.9l-1.5,5.5l-1.3,4.5l-1.1,3.9l-0.8,4.5l0.8,2.4l1.8,7l1,6.1l1.8,2.7l-1,1.5l-3.1,1.9l-5.7-3.9l-5.5-1.1
	l-1.3,0.5l-3.2-0.6l-4.2-3.1l-5.2-1.1l-7.6-3.4l-2.1-3.9l-1.3-6.5l-3.2-1.9l-0.6-2.3l0.6-0.6l0.3-3.4l-1.3-0.6l-0.6-1l1.3-4.4
	l-1.6-2.3l-3.2-1.3l-3.4-4.4l-3.6-6.6l-4.2-2.6l0.2-1.9l-5.3-12.3l-0.8-4.2l-1.8-1.9l-0.2-1.5l-6-5.3l-2.6-3.1v-1.1l-2.6-2.1
	l-6.8-1.1l-7.4-0.6l-3.1-2.3l-4.5,1.8l-3.6,1.5l-2.3,3.2l-1,3.7l-4.4,6.1l-2.4,2.4l-2.6-1l-1.8-1.1l-1.9-0.6l-3.9-2.3v-0.6l-1.8-1.9
	l-5.2-2.1l-7.4-7.8l-2.3-4.7v-8.1l-3.2-6.5l-0.5-2.7l-1.6-1l-1.1-2.1l-5-2.1l-1.3-1.6l-7.1-7.9l-1.3-3.2l-4.7-2.3l-1.5-4.4l-2.6-2.9
	l-1.9-0.5l-0.6-4.7l8,0.7l29,2.7l29,1.6l2.2-19.5l3.9-55.6l1.6-18.7l1.4,0"/>
<path id="NM" fill="#F4F3F2" stroke="#B7B7B7" stroke-width="2" d="M288.2,424l-0.8-4.7l8.6,0.5l30.2,2.9l27.3,1.7l2.2-18.7
	l3.9-55.9l1.7-19.4l1.6,0.1l0.8-11.2l-104-10.6l-17.5,120.4l15.5,2l1.3-10L288.2,424L288.2,424z"/>
<path id="KS" fill="#F4F3F2" stroke="#B7B7B7" stroke-width="2" d="M507.9,324.4l-12.6,0.2l-46.1-0.5l-44.6-2.1l-24.6-1.3l3.9-64.6
	l22.1,0.7l40.3,0.8l44.3,1h5.1l2.2,2.2l2,0l1.6,1l-0.1,3l-1.8,1.7l-0.3,2.2l1.8,3.4l3,3.2l2.3,1.6l1.3,11.2L507.9,324.4L507.9,324.4
	z"/>
<path id="CO" fill="#F4F3F2" stroke="#B7B7B7" stroke-width="2" d="M380,321l4.9-86.3L271.5,222l-12.2,87.9L380,321z"/>
<path id="UT" fill="#F4F3F2" stroke="#B7B7B7" stroke-width="2" d="M259.5,310.1l-83.7-11.9l20.6-112.5l46.8,8.7l-1.5,10.6
	l-2.3,13.2l7.8,0.9l16.4,1.8l8.2,0.9L259.5,310.1z"/>
<path id="AZ" fill="#F4F3F2" stroke="#B7B7B7" stroke-width="2" d="M144.9,382.6l-2.6,2.2l-0.3,1.5l0.5,1l18.9,10.7l12.1,7.6
	l14.7,8.6l16.8,10l12.3,2.4l25,2.7l17.3-119.1l-83.7-11.9l-3.1,16.4l-1.6,0l-1.7,2.6l-2.5-0.1l-1.3-2.7l-2.7-0.3l-0.9-1.1H161
	l-0.9,0.6l-1.9,1l-0.1,7l-0.2,1.7l-0.6,12.6l-1.5,2.2l-0.6,3.3l2.7,4.9l1.3,5.8l0.8,1l1,0.6l-0.1,2.3l-1.6,1.4l-3.4,1.7l-1.9,1.9
	l-1.5,3.7l-0.6,4.9l-2.9,2.7l-2.1,0.7l0.1,0.8l-0.5,1.7l0.5,0.8l3.7,0.6l-0.6,2.7l-1.5,2.2L144.9,382.6L144.9,382.6z"/>
<path id="NV" fill="#F4F3F2" stroke="#B7B7B7" stroke-width="2" d="M196.4,185.6l-23.6,128.8l-1.8,0.3l-1.6,2.4l-2.4,0l-1.5-2.7
	l-2.6-0.4l-0.8-1.1l-1-0.1l-2.8,1.6l-0.3,6.8l-0.4,5.8l-0.3,8.6l-1.4,2.1l-2.4-1.1L84.3,232.5l19-67.6L196.4,185.6L196.4,185.6z"/>
<path id="CA" fill="#F4F3F2" stroke="#B7B7B7" stroke-width="2" d="M144.7,382.2l3.9-0.5l1.5-2l0.5-2.9l-3.6-0.6l-0.5-0.7l0.5-2
	l-0.2-0.6l1.9-0.6l3-2.8l0.6-5l1.4-3.4l1.9-2.2l3.5-1.6l1.7-1.6l0.1-2.1l-1-0.6l-1-1.1l-1.2-5.8l-2.7-4.8l0.6-3.5l-2.4-1L84.3,232.5
	l18.9-67.6l-67.1-15.7l-1.5,4.7l-0.2,7.4l-5.2,11.8l-3.1,2.6l-0.3,1.1l-1.8,0.8l-1.5,4.2l-0.8,3.2l2.7,4.2l1.6,4.2l1.1,3.6l-0.3,6.5
	l-1.8,3.1l-0.6,5.8l-1,3.7l1.8,3.9l2.7,4.5l2.3,4.8l1.3,4l-0.3,3.2l-0.3,0.5v2.1l5.7,6.3l-0.5,2.4l-0.6,2.3l-0.6,1.9l0.2,8.2
	l2.1,3.7l1.9,2.6l2.7,0.5l1,2.7l-1.1,3.6l-2.1,1.6h-1.1l-0.8,3.9l0.5,2.9l3.2,4.4l1.6,5.3l1.5,4.7l1.3,3.1l3.4,5.8l1.5,2.6l0.5,2.9
	l1.6,1v2.4l-0.8,1.9l-1.8,7.1l-0.5,1.9l2.4,2.7l4.2,0.5l4.5,1.8l3.9,2.1h2.9l2.9,3.1l2.6,4.8l1.1,2.3l3.9,2.1l4.8,0.8l1.5,2.1
	l0.6,3.2l-1.5,0.6l0.3,1l3.2,0.8l2.7,0.2l3.2-1.7l3.9,4.2l0.8,2.3l2.6,4.2l0.3,3.2v9.4l0.5,1.8l10,1.5l19.7,2.7L144.7,382.2
	L144.7,382.2z M56.6,338.5l1.3,1.5l-0.2,1.3l-3.2-0.1l-0.6-1.2l-0.6-1.5L56.6,338.5L56.6,338.5z M58.5,338.5l1.2-0.6l3.6,2.1
	l3.1,1.2l-0.9,0.6l-4.5-0.2l-1.6-1.6L58.5,338.5L58.5,338.5z M79.2,358.3l1.8,2.3l0.8,1l1.5,0.6l0.6-1.5l-1-1.8l-2.7-2l-1.1,0.2
	V358.3z M77.7,366.9l1.8,3.2l1.2,1.9l-1.5,0.2l-1.3-1.2c0,0-0.7-1.5-0.7-1.9s0-2.2,0-2.2L77.7,366.9L77.7,366.9z"/>
<path fill="none" stroke="#FF7871" stroke-width="4" d="M475.3,423c0-39.2-341.7-177.4-438.6-177.4"/>
<circle fill="#E74C3C" stroke="#AD261F" stroke-width="2" cx="474.8" cy="421" r="4.8"/>
<circle fill="#E74C3C" stroke="#AD261F" stroke-width="2" cx="33.8" cy="245.5" r="4.8"/>
</svg>
