<?xml version="1.0" encoding="utf-8"?>
<!-- Generator: Adobe Illustrator 14.0.0, SVG Export Plug-In . SVG Version: 6.00 Build 43363)  -->
<!DOCTYPE svg PUBLIC "-//W3C//DTD SVG 1.1//EN" "http://www.w3.org/Graphics/SVG/1.1/DTD/svg11.dtd">
<svg version="1.1"
	 id="svg2" xmlns:dc="http://purl.org/dc/elements/1.1/" xmlns:cc="http://creativecommons.org/ns#" xmlns:sodipodi="http://sodipodi.sourceforge.net/DTD/sodipodi-0.dtd" xmlns:inkscape="http://www.inkscape.org/namespaces/inkscape" xmlns:svg="http://www.w3.org/2000/svg" xmlns:rdf="http://www.w3.org/1999/02/22-rdf-syntax-ns#" inkscape:version="0.48.2 r9819" sodipodi:docname="AJAX.svg"
	 xmlns="http://www.w3.org/2000/svg" xmlns:xlink="http://www.w3.org/1999/xlink" x="0px" y="0px" width="1257.68px"
	 height="793.691px" viewBox="-4.32 -0.286 1257.68 793.691" enable-background="new -4.32 -0.286 1257.68 793.691"
	 xml:space="preserve">
<path id="ID_x5F_1_Schweiz" fill="#D52B1E" d="M1238.337,451.01l-12.112,4.037l-6.989-19.701l11.438-8.899l-7.154-10.981
	l12.005-7.909l-0.945-7.236l-3.902-7.552l4.702-2.348l7.209-19.896l-2.215-14.028c0.521-0.61,0.79-0.952,1.104-1.379
	c1.433-1.589,2.065-2.859,1.906-4.925c-0.158-2.064,0-3.021,0.953-4.448c0.954-1.432,1.271-1.906,1.589-5.878
	c0.186-2.292,0.497-3.792,1.44-5.354l-9.701-6.246l-11.312-3.679l1.355-6.522l-11.523-8.439l-3.146,3.072l-5.146,0.15l-4.337,5.059
	l-3.547,11.95l-5.472,1.853l4.197,9.27l-6.593,0.581l-15.49-3.758l-2.062,12.232l0.795,14.935l-9.851,1.271l-8.236,5.77
	l-15.277,2.65l-2.423-3.1l-2.666-3.409l-10.479-0.164l-8.798-14.311l-8.36-2.532l-3.495-2.457h-14.936l-13.347-8.663l-0.692-12.927
	l5.72-12.072l-5.343-3.916l1.589-5.722l-4.35-0.532l-4.769,4.607l-5.562,0.158l-14.142-9.852l-8.043-0.103l-20.872-7.684
	l-12.81,3.231l-6.99-4.13l-12.074,5.72l-5.084-7.625l-16.065,7.127c0.097-1.434,0.869-2.957,2.578-5.061
	c0.789-0.974,1.783-2.068,3.005-3.339c6.474-6.723,6.211-9.801,3.812-18.43c-1.589-5.72-3.639-10.967-5.878-16.684
	c-2.857-7.309-2.383-10.962-0.316-17.315c2.063-6.354,7.783-20.812,10.484-26.057c1.804-3.496,3.465-7.063,5.646-10.325
	c1.09-1.628,2.304-3.182,3.729-4.606c4.29-4.29,5.879-8.262,6.832-13.028c0.953-4.766,3.021-7.783,6.99-12.072l8.093-0.973
	l4.458-7.639l-5.741-5.48c0.335-2.599,0.33-5.396,0.022-8.47c-0.479-4.767-0.479-6.037,0.953-7.785
	c0.688-0.844,1.122-2.13,1.396-3.685l-20.889-6.971l-3.717-8.886c-0.623-0.383-1.206-0.858-1.737-1.433
	c-0.291-0.313-0.549-0.571-0.8-0.801c-0.074-0.068-0.148-0.119-0.222-0.183c-0.181-0.146-0.354-0.269-0.525-0.363
	c-0.087-0.05-0.174-0.088-0.261-0.123c-0.172-0.071-0.354-0.107-0.538-0.125c-0.085-0.01-0.164-0.026-0.255-0.022
	c-0.276,0.007-0.569,0.058-0.909,0.177l0,0c-0.896,0.319-2.065,1.042-3.8,2.234c-3.393,2.34-5.878,3.337-9.852,5.402
	c-3.555,1.851-6.194,0.636-8.421-2.542c-2.224-3.179-4.925-5.084-7.784-5.721c-2.857-0.636-2.857-1.589-2.384-2.858
	c0.477-1.271,0.159-2.064-2.383-3.973c-2.542-1.907-7.149-5.401-10.326-7.468c-3.178-2.063-3.812-4.131-3.021-7.147
	c0.796-3.021,0.637-4.13-3.812-7.148c-4.448-3.02-18.271-12.393-23.514-15.094c-5.242-2.7-19.913-10.093-24.625-11.916
	c-0.504-0.194-0.938-0.465-1.336-0.763l-0.029,0.006l-6.209-2.934l-3.07-3.301c-3.021,0.263-4.534,0.586-6.673,0l-8.274-3.688
	l-18.217-3.396l-8.337,2.063l-20.266,11.417l-8.46,1.234l-8.585-1.806c0.259-0.408,1.495-0.56,3.664-0.107
	c0.581,0.119,1.156,0.228,1.733,0.312l0.173-0.947l-5.854-9.593l-3.044-0.854l0.509-5l5.509-0.405l-1.324-4.229l-6.019,0.044
	l-9.086-5.306l-2.571-7.898l-9.364,7.468l-0.104,5.736l8.673,2.041l-2.812,10.267c-2.579-0.55-4.609-1.883-8.035-3.708
	c-2.311-1.234-5.995-1.782-9.9-1.804l3.068-10.59l-6.037-1.907l-1.219-3.688l3.178-6.037l5.012-1.573l-7.604-6.494l-5.084,1.589
	l-9.532-15.251l-4.237,1.871l2.065,9.374l-4.184,4.007l-4.447-1.271L727.042,0.35l-15.251-0.637l2.542,12.074l-3.836-3.711
	l-18.554,5.472c-0.354,0.579-0.776,1.2-1.283,1.895c-3.925,5.378-6.377,8.03-8.803,10.136l-0.625,4.068l-1.534,5.974l-5.881,2.833
	c-0.993,1.39-2.318,3.122-3.612,4.826c0,0,4.303,5.81,4.303,5.811l-4.29,4.132l2.122,3.254l14.627,4.231l0.045,6.124l18.677-3.699
	l-2.794-4.951l11.719-3.836l5.76-1.885l5.739,4.56c0.044,1.512,0.846,2.612,2.36,3.545c4.928,3.02-3.019,11.611-3.019,3.973
	c0-5.676-6.673-1.748-3.337,6.515c2.85,7.061,1.641,10.15-3.021,14.141l-5.084-1.906l2.228-6.354l-6.99-3.812l-9.533-3.495
	l-3.495,5.401l-5.398,0.636l-6.99,4.448l6.494,11.623c-1.16,0.412-2.458,0.934-3.952,1.562c-4.762,2.104-7.462,2.683-9.538,2.43
	c-1.521-0.188-2.708-0.827-4.125-1.636c-3.337-1.904-4.767-1.43-6.991,0.794c-2.224,2.226-4.604,1.748-9.53,1.432
	c-4.927-0.317-6.675-1.432-10.008-3.974c-3.337-2.542-5.72-5.399-5.399-8.104c0.315-2.7-0.638-3.336-3.021-3.972
	c-2.383-0.638-7.467-1.748-10.482-1.59c-1.714,1.143-3.798,1.826-5.238,1.277c-0.618-0.235-1.161-0.736-1.594-1.597
	c-1.433-2.858-3.141-3.629-6.831,0.159c-4.285,4.395-7.199,6.509-11.007,8.341c-1.7,0.817-3.577,1.579-5.834,2.462
	c-5.292,2.07-6.675,2.063-7.784,5.243c-1.112,3.178-2.543,5.562-6.038,4.768s-5.113-0.062-8.104,1.431
	c-4.445,2.225-5.561,2.384-11.756,0.794c-3.688-0.924-8.149-1.079-12.192,0.164c-0.828,0.259-1.64,0.57-2.425,0.947
	c-7.253,3.5-12.963,0.364-13.504-6.672c-0.393-5.092-4.192-8.957-10.645-7.148c-3.975,1.111-4.131,1.748-8.104,1.111
	c-3.972-0.637-4.767-0.159-5.878,4.925c-1.109,5.084-5.084,7.148-10.804,8.579c-5.72,1.432-10.485,2.542-15.569,4.29
	c-0.723,0.249-0.784,0.276-1.428,0.479c-4.553,3.396-7.571,4.273-10.506,2.479c-1.636-1-3.371-2.794-5.604-5.398
	c-1.355-1.586-2.54-2.835-3.824-3.564l12.997-5.223l-0.214-11.229l-9.012-0.187c-1.298,2.807-4.101,6.106-7.137,8.211l-8.849-4.848
	L439.59,98.639l-15.252,10.595l8.051,5.72l-6.777,3.386l3.389,6.146l-9.743,6.991l-11.647-6.991l-2.967,6.991l9.105,3.812
	l-3.389,3.812l-7.202,8.048l-10.381,4.131l-12.395-2.859l-12.812,0.851l-11.228,6.354l-3.285-8.476l-8.579,2.225l-8.686-1.801
	l5.823-17.371l1.59-3.601l-9.955,0.847l-8.476-4.659l-15.569,5.295l-12.812-6.143l-10.383,4.66l2.542,16.732l-14.614,7.415
	l-1.06,10.805l-6.143,0.211l-2.333,7.626l-5.928,2.542l-1.698,10.592l6.782-1.062l9.317,0.427l9.955-1.696l11.438-3.177l8.476,1.693
	l1.483,11.017l-2.333,3.177l-9.318,1.271l-0.613,9.364c-0.415,0.33-0.829,0.71-1.349,1.122c-1.589,1.271-3.495,1.905-6.195,2.225
	c-2.7,0.318-4.767,1.271-7.942,1.431c-3.177,0.16-3.336,0.794-2.385,2.701c0.953,1.904,0.794,4.13,0.637,7.941
	c-0.159,3.812-0.316,4.606,0.794,6.516c1.11,1.904,1.352,2.512-0.953,3.812c-7.31,4.13-15.411,12.073-17.316,14.458
	c-0.953,0.794-2.063,2.064-2.383,3.177c-0.318,1.111-0.953,2.226-2.064,3.336c-1.111,1.112-2.542,1.906-4.606,3.179
	c-2.064,1.271-1.905,2.063-1.111,3.336c0.57,0.909,0.562,0.821,0.799,1.951c0.188,0.876-0.52,1.869-0.971,2.32
	c-1.59,1.589-3.802,2.876-6.344,5.26s-5.562,5.879-9.214,6.989c-3.653,1.111-7.31,2.859-10.327,4.447
	c-3.021,1.59-3.494,3.337-2.7,5.562c0.472,1.32-0.175,2.418-1.445,3.188c-0.867,0.529-2.028,0.906-3.319,1.101
	c-3.18,0.479-4.29,1.112-5.878,3.974c-1.353,2.431-2.239,3.139-4.229,4.662l8.416,6.828l-6.354,5.933l-5.084,0.213l-7.204,4.871
	l-3.39,8.687l-7.201,4.659l-4.236-1.061l-24.783,10.17l-2.543-3.812l-4.237,2.964l-7.626,11.019l-7.2,4.233l9.32,15.889
	l-0.953,14.935l-9.531,16.521l1.375,4.346l6.354,4.662l-1.8,7.834l-6.354,6.146l-9.215,2.542l-3.389,7.413l-16.312,8.9l-14.403,7.2
	l-9.319,11.438L42.194,490.95l11.86,12.098c-0.76,0.792-1.446,1.485-1.947,2.029c-1.327,1.438-2.812,2.928-4.789,4.873
	c-1.606,1.581-3.3,3.931-4.872,5.397l-4.913,13.729l-6.777,6.354l2.966,9.106l-7.202,9.957l10.38,2.964l20.334,16.521L44.1,594.742
	l-1.482,7.837l-5.297,5.299l6.145,12.71l-5.508,6.142l-4.235-4.021l-14.3,4.873l-8.153,2.328l-3.392,4.448l-4.873-0.637l-4.659,8.05
	l9.319,5.084l-3.441,6.303c-1.992,1.591-3.131,5.053-5.454,10.013c-0.947,2.021-1.972,3.413-3.089,4.379l0.759,3.032l10.591-6.564
	l10.593,3.39l3.812-2.542l0.846-3.812l11.438-0.211l1.271,3.812l9.533,0.637l17.156-10.38l-1.692-4.025l13.346-11.016l3.179,1.062
	l13.769-7.626l4.662-10.593l-4.025-5.295l-6.99,6.775L75.24,611.48l4.662-4.87l-3.112-7.061l-5.563-3.556l2.603-5.023l2.924-5.591
	l3.163-5.957l23.514-17.317l24.625-4.131l26.61-16.126l45.12,1.596l37.812,10.878l-4.532,13.341l0.839,5.058l-9.318,6.354
	l-1.271,4.022l4.448,8.475l8.262,6.988l6.775,9.535l4.24,4.447v10.38l-4.875,1.691l-5.084,6.991l-5.929,11.65l0.636,10.59
	l-3.812,5.51l2.329,11.229l4.661,2.116h5.93l17.477,3.603l-3.704,7.202l-0.85,11.229l-4.234,9.742l5.72,3.39l11.488-9.742
	l4.978,7.024l3.575,5.521l7.071,13.722l4.025,1.903l5.084,6.778l-4.025,4.448l3.812,5.72l5.295,0.423l-1.481,5.933l2.964,6.99
	l5.085,7.413l3.812,8.261l4.448,5.298l1.271,5.722h5.508l6.354-6.989l4.659-0.637l5.934,5.72l4.447,0.847l2.118-5.508l7.626-7.626
	l5.719,0.635l2.968,1.485l10.167-13.562l7.626,4.448l7.626-1.059l9.744,6.99l4.872-4.873l4.871-1.271l10.593-9.956l4.873-0.423
	l0.422-4.448l3.604-2.966l5.72-2.331l5.931,2.331l4.026-2.967v-7.626l4.232-2.117h4.026l2.328,5.084l6.354,1.695l7.84-0.215
	l7.203-2.328l5.93,6.564l8.367,3.604l-0.74,6.354l2.334,3.813h5.928l2.756-4.873l4.448-0.426l10.59,9.109l4.662-4.025l13.345,3.179
	l3.601-2.542l-2.541-5.932l3.393-13.771l6.775-8.263l4.446-1.692l18.646,0.637l6.354-7.203l1.906-9.317l3.812-3.604l-2.542-9.957
	l3.812-12.073l19.701-4.022l2.964-8.688l10.381-5.506l-2.12-6.567l4.662-8.048l-3.812-5.936l-4.979-12.496l-7.52-7.625l-7.625-6.354
	l16.944-15.889l4.556,4.132l14.09-6.248l5.506-12.074l8.262-4.448l2.012-5.188l7.311-1.906l7.623-8.261l-2.542-6.355l-3.812-2.225
	l0.778-5.636l8.274-2.469l10.168-9.373l4.436-1.312l17.325-5.372l3.669,6.6l-0.964,11.363l2.5,4.619l-1.705,31.444l-8.21,11.723
	l7.17,11.908l-2.759,8.634l6.922,2.106l0.163,4.714l5.506,1.271l7.735,4.238l4.891,1.021l19.372,29.487l3.59,8.785l9.587-1.979
	l15.619,8.488l3.02,1.764l3.293-5.517l4.434-3.269l1.803,6.462l13.826,4.533l3.649-3.301l12.23,8.771l-0.844,6.602l-7.842,13.626
	l-6.729,3.449l-2.684,10.945c1.14-0.216,2.228-0.389,3.312-0.389c1.793,0,4.102,0.406,8.223,2.392
	c4.034,1.944,5.77,5.084,7.676,7.785c1.69,2.396,3.177,3.622,5.561,4.131c0,0,1.112-0.317,2.227-0.478l2.857-0.28l1.346,3.021
	l-0.898,7.761l2.196,3.879l4.372,1.623l0.453,1.476l0.88,2.519l5.525,15.877l-7.837,8.772l-0.087,5.686l12.531-5.562l15.41,9.373
	l5.72-1.111l5.857-19.079l10.122-13.296l-9.521-8.422l-8.896-2.858l-3.111-11.666l-5.555-5.132l9.561-8.104l-0.739-2.485
	l-1.743-4.86l-4.445-6.832l3.651-7.468l15.033-7.173l4.002-8.003l-3.939-12.944l12.71-6.989l6.673-8.263l3.495-4.132l9.851-5.561
	l1.271-9.374l5.399-6.354v-4.768l7.625-0.317l0.954-13.025l6.886-12.604l4.87-11.228l-0.813-10.774l-5.747-6.385l0.209-19.7
	l-8.368-7.979l-0.399-4.983l4.369-0.705l3.072-3.389l1.093-15.712l8.922-4.194l13.876-1.271l0.848,5.188l5.827,7.729l7.197,2.646
	l6.129-13.234l7.484-4.03l0.365,8.438l-0.479,10.805l-1.109,15.926l2.65,6.673l-0.429,10.925l9.84,4.44l6.441,14.054l7.661,10.936
	l2.896-1.346l8.44,4.005l4.973,0.309l2.646,2.857l5.827,0.104l12.074-6.143l5.188,3.919l5.188-1.165l3.602-8.266l-2.854-4.339
	l2.542-6.146l4.235-4.659l8.475,6.564l17.049-10.804l9.852-1.906l8.728-7.521l5.892,4.789l7.311-3.199l3.6,6.143l8.157,4.658
	l-2.756,4.979v5.4l4.979,4.979l-1.059,10.91l10.804,2.225l7.283,4.021l0.763,6.745l-3.337,7.311l7.943,4.605l3.44-4.568l14.3,0.422
	l9.36-12.037l-0.781-4.627l-4.021-2.718l-1.169-7.133l-6.566-5.688l-6.036-8.261l-1.019-7.272l5.044-4.799l0.317-7.267l4.413-3.57
	l4.114-0.38l1.107-10.711l-8.897-6.882l-12.392,5.608l-11.757-12.393l0.163-5.05l-1.224-4.798l-0.777-11.739l2.038-7.399
	l-1.896-7.654l6.261-6.479l6.769-9.518l1.588-13.015l8.261,1.905l14.69-8.713l1.566,0.712c1.188-0.263,2.753,0.062,4.896,1.339
	c0.651,0.391,1.243,0.737,1.771,1.053l1.967-6.744l4.041,0.265l5.356,9.907l-3.844,5.771l-1.009,5.908l4.562,3.057l4.556-0.438
	l4.132,3.336l1.153,4.833l13.779,1.681l3.009-2.557l5.85,0.021l8.619,3.173l3.5-3.92l10.69,7.539l4.789-4.729l3.495-11.757
	l1.037-12.074l2.354-2.587L1238.337,451.01z M747.38,46.263c-2.686,0.605-4.273,1.04-6.588,0.521l-1.673-9.188l10.803-1.59
	l2.334,9.479C750.552,45.661,748.893,45.924,747.38,46.263z M838.583,740.285l-3.271-1.306l-1.629-0.67l2.708-8.714l1.896,0.655
	l1.238,1.074l0.795,2.858L838.583,740.285z"/>
<g>
	<rect id="rect8" x="464.542" y="303.74" fill="#FFFFFF" width="342.373" height="102.712"/>
	<rect id="rect10" x="584.372" y="183.909" fill="#FFFFFF" width="102.712" height="342.372"/>
</g>
</svg>
